<svg width="153" height="53" viewBox="0 0 153 53" fill="none" xmlns="http://www.w3.org/2000/svg">
<g id="BMO-Logo">
<g id="Logo/Master">
<g id="BMO-MB_2">
<path id="Shape" d="M16.9474 20.6111C16.9474 23.3789 15.68 24.91 12.3421 24.91H9.49051V16.4521C9.85156 16.4153 11.06 16.3932 11.421 16.3932H12.3937C15.7979 16.3932 16.9474 17.836 16.9474 20.6111ZM23.7263 31.6528C23.7263 27.2876 20.16 25.705 15.8347 25.6093V25.4473C19.5189 25.1455 22.5326 23.6071 22.5326 19.8971C22.5326 15.7675 19.1137 14.9946 15.2895 14.9946C10.6916 14.9946 5.29788 15.1197 0.714722 14.9946V16.4153C1.67998 16.349 4.03788 16.4815 4.03788 17.6961V35.2744C4.03788 36.4522 1.62104 36.6142 0.714722 36.6142V37.998C5.13577 37.8803 10.4042 37.998 14.8621 37.998C19.5484 37.998 23.7263 36.4154 23.7263 31.6528ZM17.8316 31.2037C17.8316 34.818 16.5716 36.5332 12.1947 36.5332H9.46841V26.4043H12.3716C16.3726 26.4043 17.8537 27.7514 17.8537 31.1743L17.8316 31.2037Z" fill="white"/>
<path id="Path" d="M53.3842 37.9613C51.321 37.9613 49.2652 37.9613 47.2094 37.9981V36.5847C48.1452 36.5847 50.7389 36.5332 50.7389 35.2744V18.9475H50.6652L41.3663 38.2778H40.2463L31.1758 18.9107H31.1094V35.2744C31.1094 36.5626 33.681 36.5847 34.6537 36.5847L34.6979 37.9981C32.1263 37.9171 28.6189 37.8582 26.0916 37.9981V36.5847C27.0716 36.5847 29.2821 36.5037 29.2821 35.2744V17.6667C29.2821 16.4668 26.9979 16.3637 26.0916 16.3637V14.9431C29.0389 15.0682 32.1631 15.0682 35.0884 14.9431L42.84 31.2774L50.7758 15.0019C53.5905 15.1271 56.7737 15.0903 59.6179 14.9651V16.3858C58.6821 16.3858 56.2284 16.4521 56.2284 17.6887V35.2744C56.2284 36.5332 58.6526 36.5847 59.6179 36.5847V37.9981C57.5326 37.9392 55.44 37.9613 53.3842 37.9613Z" fill="white"/>
<path id="Shape_2" d="M81.2663 26.4559C81.2663 30.8725 80.8315 36.9749 74.3031 36.9749C67.7747 36.9749 67.3031 30.8431 67.3031 26.4559C67.3031 22.0686 67.7747 15.981 74.3031 15.981C80.8315 15.981 81.2663 22.0834 81.2663 26.4559ZM87.3673 26.4559C87.3673 18.8371 82.7105 14.5603 74.3031 14.5603C65.8958 14.5603 61.1947 18.8003 61.1947 26.4559C61.1947 34.1114 65.8589 38.3809 74.3031 38.3809C82.7473 38.3809 87.3673 34.1188 87.3673 26.4559Z" fill="white"/>
<path id="Path_2" d="M126.413 0C111.763 0 99.8863 11.8645 99.8863 26.5C99.8863 41.1355 111.763 53 126.413 53C141.063 53 152.939 41.1355 152.939 26.5C152.939 11.8645 141.063 0 126.413 0Z" fill="#ED1C24"/>
<path id="Shape_3" d="M125.602 18.4028L120.997 12.4035C120.803 12.1479 120.5 11.998 120.179 11.9986C119.867 11.9969 119.573 12.1413 119.383 12.3887L113.901 19.2861V30.1069L119.368 23.1212C119.569 22.866 119.876 22.7168 120.201 22.7164C120.53 22.7152 120.841 22.8677 121.041 23.1286L125.668 29.1721C125.846 29.4017 126.115 29.5417 126.405 29.5549C126.696 29.5447 126.967 29.4041 127.142 29.1721L131.769 23.1286C131.972 22.8704 132.281 22.7185 132.609 22.7164C132.935 22.7135 133.243 22.8634 133.442 23.1212L138.895 30.0996V19.2787L133.413 12.3814C133.22 12.1337 132.923 11.9895 132.609 11.9912C132.289 11.994 131.988 12.1432 131.792 12.3961L127.223 18.4028C127.031 18.6553 126.73 18.8026 126.413 18.8003C126.096 18.7992 125.797 18.6526 125.602 18.4028ZM138.932 38.0349H113.879V30.0996H138.932V38.0349Z" fill="white"/>
</g>
</g>
</g>
</svg>
