<svg width="84" height="84" viewBox="0 0 84 84" fill="none" xmlns="http://www.w3.org/2000/svg">
<path id="Vector" fill-rule="evenodd" clip-rule="evenodd" d="M42 8.39999C36.1232 8.39892 30.3489 9.93924 25.2534 12.8672C20.158 15.7952 15.9196 20.0084 12.9613 25.0864C10.003 30.1643 8.42835 35.9294 8.39444 41.8061C8.36052 47.6828 9.86856 53.4656 12.768 58.5774C14.7278 56.0304 17.247 53.9682 20.131 52.5503C23.0149 51.1323 26.1863 50.3966 29.4 50.4H54.6C57.8137 50.3966 60.9851 51.1323 63.869 52.5503C66.753 53.9682 69.2722 56.0304 71.232 58.5774C74.1314 53.4656 75.6395 47.6828 75.6056 41.8061C75.5716 35.9294 73.997 30.1643 71.0387 25.0864C68.0804 20.0084 63.842 15.7952 58.7466 12.8672C53.6511 9.93924 47.8768 8.39892 42 8.39999ZM75.3606 67.5191C80.9761 60.1984 84.0135 51.2264 83.9999 42C83.9999 18.8034 65.1966 0 42 0C18.8034 0 4.72636e-05 18.8034 4.72636e-05 42C-0.0138188 51.2264 3.02365 60.1986 8.63944 67.5191L8.61844 67.5947L10.1094 69.3293C14.0485 73.9347 18.9394 77.6311 24.445 80.1638C29.9505 82.6965 35.9398 84.0053 42 83.9999C50.5148 84.0156 58.8311 81.4291 65.835 76.5869C68.8209 74.5239 71.5284 72.0846 73.8906 69.3293L75.3816 67.5947L75.3606 67.5191ZM42 16.8C38.6583 16.8 35.4534 18.1275 33.0905 20.4904C30.7275 22.8534 29.4 26.0583 29.4 29.4C29.4 32.7417 30.7275 35.9466 33.0905 38.3095C35.4534 40.6725 38.6583 42 42 42C45.3417 42 48.5466 40.6725 50.9095 38.3095C53.2725 35.9466 54.6 32.7417 54.6 29.4C54.6 26.0583 53.2725 22.8534 50.9095 20.4904C48.5466 18.1275 45.3417 16.8 42 16.8Z" fill="#626262"/>
</svg>
